<svg width="18" height="19" viewBox="0 0 18 19" fill="none" xmlns="http://www.w3.org/2000/svg">
<path d="M14.25 3.5H13.425C13.2509 2.65356 12.7904 1.89301 12.1209 1.34654C11.4515 0.800068 10.6142 0.501091 9.75 0.5L8.25 0.5C7.38585 0.501091 6.54849 0.800068 5.87906 1.34654C5.20964 1.89301 4.74907 2.65356 4.575 3.5H3.75C2.7558 3.50119 1.80267 3.89666 1.09966 4.59966C0.396661 5.30267 0.00119089 6.2558 0 7.25L0 14.75C0.00119089 15.7442 0.396661 16.6973 1.09966 17.4003C1.80267 18.1033 2.7558 18.4988 3.75 18.5H14.25C15.2442 18.4988 16.1973 18.1033 16.9003 17.4003C17.6033 16.6973 17.9988 15.7442 18 14.75V7.25C17.9988 6.2558 17.6033 5.30267 16.9003 4.59966C16.1973 3.89666 15.2442 3.50119 14.25 3.5ZM8.25 2H9.75C10.2137 2.00192 10.6655 2.14706 11.0435 2.41557C11.4216 2.68407 11.7074 3.06282 11.862 3.5H6.138C6.29256 3.06282 6.57842 2.68407 6.95648 2.41557C7.33453 2.14706 7.7863 2.00192 8.25 2ZM3.75 5H14.25C14.8467 5 15.419 5.23705 15.841 5.65901C16.2629 6.08097 16.5 6.65326 16.5 7.25V9.5H1.5V7.25C1.5 6.65326 1.73705 6.08097 2.15901 5.65901C2.58097 5.23705 3.15326 5 3.75 5ZM14.25 17H3.75C3.15326 17 2.58097 16.7629 2.15901 16.341C1.73705 15.919 1.5 15.3467 1.5 14.75V11H8.25V11.75C8.25 11.9489 8.32902 12.1397 8.46967 12.2803C8.61032 12.421 8.80109 12.5 9 12.5C9.19891 12.5 9.38968 12.421 9.53033 12.2803C9.67098 12.1397 9.75 11.9489 9.75 11.75V11H16.5V14.75C16.5 15.3467 16.2629 15.919 15.841 16.341C15.419 16.7629 14.8467 17 14.25 17Z" fill="#7E7E7E"/>
</svg>
