<svg width="18" height="18" viewBox="0 0 18 18" fill="none" xmlns="http://www.w3.org/2000/svg">
<path d="M12.375 0C9.2205 0 6.75 1.48275 6.75 3.375V5.31525C6.3766 5.27154 6.00095 5.24975 5.625 5.25C2.4705 5.25 0 6.73275 0 8.625V14.625C0 16.5173 2.4705 18 5.625 18C8.187 18 10.2983 17.022 11.0002 15.6405C11.448 15.7058 11.9055 15.75 12.375 15.75C15.5295 15.75 18 14.2673 18 12.375V3.375C18 1.48275 15.5295 0 12.375 0ZM12.375 1.5C14.736 1.5 16.5 2.49 16.5 3.375C16.5 4.26 14.736 5.25 12.375 5.25C10.014 5.25 8.25 4.26 8.25 3.375C8.25 2.49 10.014 1.5 12.375 1.5ZM5.625 6.75C7.986 6.75 9.75 7.74 9.75 8.625C9.75 9.51 7.986 10.5 5.625 10.5C3.264 10.5 1.5 9.51 1.5 8.625C1.5 7.74 3.264 6.75 5.625 6.75ZM1.5 10.9365C2.52 11.5927 3.97725 12 5.625 12C7.27275 12 8.73 11.5927 9.75 10.9365V11.625C9.75 12.51 7.986 13.5 5.625 13.5C3.264 13.5 1.5 12.51 1.5 11.625V10.9365ZM5.625 16.5C3.264 16.5 1.5 15.51 1.5 14.625V13.9365C2.52 14.5928 3.97725 15 5.625 15C7.27275 15 8.73 14.5928 9.75 13.9365V14.625C9.75 15.51 7.986 16.5 5.625 16.5ZM12.375 14.25C11.9895 14.25 11.616 14.2148 11.25 14.163V12.678C11.619 12.7215 11.9925 12.75 12.375 12.75C14.0227 12.75 15.48 12.3427 16.5 11.6865V12.375C16.5 13.26 14.736 14.25 12.375 14.25ZM12.375 11.25C11.9895 11.25 11.616 11.2148 11.25 11.163V9.678C11.619 9.7215 11.9925 9.75 12.375 9.75C14.0227 9.75 15.48 9.34275 16.5 8.6865V9.375C16.5 10.26 14.736 11.25 12.375 11.25ZM12.375 8.25C11.9685 8.25 11.5755 8.21175 11.1915 8.15475C11.043 7.4895 10.5848 6.89175 9.90075 6.414C10.6448 6.62775 11.4803 6.75075 12.375 6.75075C14.0227 6.75075 15.48 6.3435 16.5 5.68725V6.37575C16.5 7.26075 14.736 8.25075 12.375 8.25075V8.25Z" fill="#7E7E7E"/>
</svg>
