<svg width="14" height="18" viewBox="0 0 14 18" fill="none" xmlns="http://www.w3.org/2000/svg">
<path d="M7 9C7.89002 9 8.76005 8.73608 9.50007 8.24162C10.2401 7.74715 10.8169 7.04434 11.1575 6.22208C11.4981 5.39981 11.5872 4.49501 11.4135 3.6221C11.2399 2.74918 10.8113 1.94736 10.182 1.31802C9.55264 0.688685 8.75082 0.260102 7.87791 0.0864683C7.00499 -0.0871652 6.10019 0.00194979 5.27792 0.342544C4.45566 0.683138 3.75285 1.25991 3.25839 1.99994C2.76392 2.73996 2.5 3.60999 2.5 4.5C2.50119 5.69311 2.97568 6.83701 3.81934 7.68067C4.66299 8.52432 5.80689 8.99881 7 9ZM7 1.5C7.59334 1.5 8.17336 1.67595 8.66671 2.00559C9.16006 2.33524 9.54458 2.80377 9.77164 3.35195C9.9987 3.90013 10.0581 4.50333 9.94236 5.08527C9.8266 5.66722 9.54088 6.20177 9.12132 6.62132C8.70176 7.04088 8.16721 7.3266 7.58527 7.44236C7.00333 7.55811 6.40013 7.4987 5.85195 7.27164C5.30377 7.04458 4.83524 6.66006 4.50559 6.16671C4.17595 5.67337 4 5.09335 4 4.5C4 3.70435 4.31607 2.94129 4.87868 2.37868C5.44129 1.81607 6.20435 1.5 7 1.5ZM7 10.5C5.2104 10.502 3.49466 11.2138 2.22922 12.4792C0.963781 13.7447 0.251985 15.4604 0.25 17.25C0.25 17.4489 0.329018 17.6397 0.46967 17.7803C0.610322 17.921 0.801088 18 1 18C1.19891 18 1.38968 17.921 1.53033 17.7803C1.67098 17.6397 1.75 17.4489 1.75 17.25C1.75 15.8576 2.30312 14.5223 3.28769 13.5377C4.27226 12.5531 5.60761 12 7 12C8.39239 12 9.72774 12.5531 10.7123 13.5377C11.6969 14.5223 12.25 15.8576 12.25 17.25C12.25 17.4489 12.329 17.6397 12.4697 17.7803C12.6103 17.921 12.8011 18 13 18C13.1989 18 13.3897 17.921 13.5303 17.7803C13.671 17.6397 13.75 17.4489 13.75 17.25C13.748 15.4604 13.0362 13.7447 11.7708 12.4792C10.5053 11.2138 8.7896 10.502 7 10.5Z" fill="#7E7E7E"/>
</svg>
