<svg width="16" height="19" viewBox="0 0 16 19" fill="none" xmlns="http://www.w3.org/2000/svg">
<path d="M8 5C7.40666 5 6.82664 5.17595 6.33329 5.50559C5.83994 5.83524 5.45543 6.30377 5.22836 6.85195C5.0013 7.40013 4.94189 8.00333 5.05765 8.58527C5.1734 9.16721 5.45912 9.70176 5.87868 10.1213C6.29824 10.5409 6.83279 10.8266 7.41473 10.9424C7.99667 11.0581 8.59987 10.9987 9.14805 10.7716C9.69623 10.5446 10.1648 10.1601 10.4944 9.66671C10.8241 9.17336 11 8.59334 11 8C11 7.20435 10.6839 6.44129 10.1213 5.87868C9.55871 5.31607 8.79565 5 8 5ZM8 9.5C7.70333 9.5 7.41332 9.41203 7.16665 9.2472C6.91997 9.08238 6.72771 8.84811 6.61418 8.57403C6.50065 8.29994 6.47095 7.99834 6.52882 7.70736C6.5867 7.41639 6.72956 7.14912 6.93934 6.93934C7.14912 6.72956 7.41639 6.5867 7.70737 6.52882C7.99834 6.47094 8.29994 6.50065 8.57403 6.61418C8.84812 6.72771 9.08238 6.91997 9.24721 7.16665C9.41203 7.41332 9.5 7.70333 9.5 8C9.5 8.39783 9.34197 8.77936 9.06066 9.06066C8.77936 9.34196 8.39783 9.5 8 9.5Z" fill="#7E7E7E"/>
<path d="M7.99999 18.5C7.36845 18.5033 6.74532 18.3551 6.18279 18.0681C5.62026 17.781 5.13469 17.3633 4.76674 16.85C1.90849 12.9073 0.45874 9.94329 0.45874 8.03979C0.45874 6.03972 1.25326 4.12158 2.66752 2.70732C4.08178 1.29306 5.99993 0.498535 7.99999 0.498535C10.0001 0.498535 11.9182 1.29306 13.3325 2.70732C14.7467 4.12158 15.5412 6.03972 15.5412 8.03979C15.5412 9.94329 14.0915 12.9073 11.2332 16.85C10.8653 17.3633 10.3797 17.781 9.81719 18.0681C9.25466 18.3551 8.63153 18.5033 7.99999 18.5ZM7.99999 2.13579C6.4343 2.13757 4.93325 2.76033 3.82614 3.86744C2.71904 4.97455 2.09628 6.4756 2.09449 8.04129C2.09449 9.54879 3.51424 12.3365 6.09124 15.8908C6.31001 16.1921 6.59702 16.4374 6.92878 16.6065C7.26053 16.7756 7.62762 16.8638 7.99999 16.8638C8.37237 16.8638 8.73945 16.7756 9.07121 16.6065C9.40296 16.4374 9.68997 16.1921 9.90874 15.8908C12.4857 12.3365 13.9055 9.54879 13.9055 8.04129C13.9037 6.4756 13.2809 4.97455 12.1738 3.86744C11.0667 2.76033 9.56568 2.13757 7.99999 2.13579Z" fill="#7E7E7E"/>
</svg>
