<svg width="14" height="14" viewBox="0 0 14 14" fill="none" xmlns="http://www.w3.org/2000/svg">
<path d="M10.4859 8.44435C10.0763 8.44468 9.67305 8.54466 9.31079 8.73565C8.94853 8.92664 8.63818 9.20291 8.40652 9.54062L4.881 7.94875C5.1314 7.34408 5.13238 6.66489 4.88371 6.05951L8.40436 4.45951C8.74768 4.95606 9.25761 5.31311 9.84165 5.4659C10.4257 5.61869 11.0451 5.55709 11.5876 5.29228C12.1301 5.02747 12.5598 4.57699 12.7986 4.02255C13.0374 3.46811 13.0696 2.84644 12.8893 2.2703C12.709 1.69416 12.3282 1.20172 11.816 0.88229C11.3037 0.562863 10.694 0.437614 10.0973 0.529261C9.50058 0.620908 8.9565 0.923382 8.56373 1.38181C8.17095 1.84025 7.95548 2.42428 7.95642 3.02796C7.95872 3.17085 7.97321 3.31327 7.99975 3.45369L4.25703 5.15443C3.89757 4.81765 3.44756 4.59321 2.96228 4.50867C2.47701 4.42414 1.97761 4.48319 1.52544 4.67858C1.07327 4.87397 0.688027 5.19719 0.417029 5.60852C0.146032 6.01986 0.00108838 6.50139 6.10544e-06 6.99397C-0.00107617 7.48655 0.14175 7.96872 0.410937 8.38124C0.680124 8.79376 1.06395 9.11867 1.51526 9.31604C1.96656 9.51342 2.4657 9.57467 2.95133 9.49227C3.43697 9.40986 3.88797 9.1874 4.24891 8.8522L8.00138 10.5464C7.97531 10.6867 7.961 10.829 7.95859 10.9716C7.95848 11.4716 8.10666 11.9604 8.38438 12.3762C8.6621 12.792 9.05688 13.1161 9.51881 13.3075C9.98073 13.4989 10.489 13.549 10.9794 13.4515C11.4698 13.3539 11.9203 13.1132 12.2739 12.7596C12.6274 12.4061 12.8682 11.9556 12.9657 11.4652C13.0632 10.9748 13.0131 10.4665 12.8217 10.0046C12.6303 9.54264 12.3062 9.14786 11.8905 8.87014C11.4747 8.59242 10.9859 8.44424 10.4859 8.44435ZM10.4859 1.58341C10.7716 1.5833 11.0509 1.66793 11.2886 1.8266C11.5262 1.98526 11.7114 2.21083 11.8208 2.47478C11.9303 2.73873 11.959 3.0292 11.9033 3.30945C11.8476 3.5897 11.7101 3.84714 11.5081 4.04922C11.3061 4.2513 11.0487 4.38893 10.7684 4.44471C10.4882 4.5005 10.1977 4.47192 9.93373 4.3626C9.66975 4.25328 9.44411 4.06813 9.28535 3.83057C9.1266 3.593 9.04187 3.31369 9.04187 3.02796C9.04215 2.64502 9.19436 2.27785 9.46509 2.00702C9.73582 1.73619 10.1029 1.58384 10.4859 1.58341ZM2.5422 8.44435C2.25648 8.44445 1.97713 8.35982 1.73951 8.20116C1.50188 8.04249 1.31665 7.81692 1.20723 7.55298C1.09781 7.28903 1.06913 6.99856 1.1248 6.71831C1.18048 6.43806 1.31802 6.18061 1.52002 5.97854C1.72202 5.77646 1.97942 5.63882 2.25965 5.58304C2.53988 5.52726 2.83035 5.55584 3.09434 5.66515C3.35833 5.77447 3.58397 5.95962 3.74272 6.19719C3.90148 6.43476 3.98621 6.71407 3.98621 6.9998C3.98578 7.38269 3.83353 7.74978 3.56283 8.02058C3.29213 8.29138 2.9251 8.44377 2.5422 8.44435ZM10.4859 12.4162C10.2002 12.4162 9.92088 12.3315 9.68332 12.1727C9.44577 12.014 9.26062 11.7884 9.15128 11.5244C9.04195 11.2605 9.01334 10.97 9.06908 10.6898C9.12482 10.4096 9.2624 10.1522 9.46442 9.95018C9.66645 9.74816 9.92384 9.61058 10.2041 9.55484C10.4843 9.4991 10.7747 9.52771 11.0387 9.63704C11.3026 9.74638 11.5282 9.93153 11.687 10.1691C11.8457 10.4066 11.9304 10.6859 11.9304 10.9716C11.9301 11.3547 11.7779 11.7219 11.507 11.9928C11.2362 12.2636 10.8689 12.4159 10.4859 12.4162Z" fill="#444444"/>
</svg>
