<svg width="14" height="18" viewBox="0 0 14 18" fill="none" xmlns="http://www.w3.org/2000/svg">
<path d="M10.4133 9.072C12.3048 7.37925 13.4155 5.50275 13.717 3.48525C13.7793 3.0647 13.7501 2.63566 13.6314 2.22742C13.5127 1.81918 13.3073 1.44136 13.0293 1.11975C12.7465 0.791334 12.3963 0.527782 12.0024 0.347091C11.6086 0.1664 11.1803 0.0728249 10.747 0.0727539H3.25376C2.37701 0.0727539 1.54451 0.455254 0.971507 1.1205C0.693126 1.44251 0.48756 1.82084 0.368862 2.22961C0.250165 2.63839 0.221135 3.06798 0.283757 3.489C0.587507 5.51325 1.69676 7.3875 3.58451 9.072C1.69676 10.7565 0.587507 12.6315 0.283757 14.655C0.221285 15.076 0.250388 15.5056 0.369079 15.9143C0.48777 16.3231 0.693254 16.7014 0.971507 17.0235C1.25408 17.3521 1.60428 17.6159 1.99817 17.7967C2.39205 17.9775 2.82034 18.0712 3.25376 18.0713H10.7463C11.1796 18.0712 11.6078 17.9776 12.0017 17.7969C12.3956 17.6162 12.7458 17.3527 13.0285 17.0243C13.3068 16.7026 13.5124 16.3247 13.6313 15.9163C13.7501 15.508 13.7793 15.0787 13.717 14.658C13.4155 12.6405 12.3048 10.7655 10.4133 9.072ZM11.8923 16.0455C11.7504 16.2106 11.5746 16.3431 11.3768 16.434C11.179 16.5249 10.9639 16.572 10.7463 16.572H3.25376C3.03602 16.572 2.82086 16.5248 2.62305 16.4338C2.42524 16.3428 2.24946 16.2101 2.10776 16.0448C1.96912 15.8869 1.86667 15.7007 1.8076 15.4991C1.74852 15.2975 1.73424 15.0854 1.76576 14.8778C2.04701 13.0035 3.20801 11.2485 5.21501 9.66C5.30394 9.58995 5.37583 9.50064 5.42525 9.3988C5.47468 9.29695 5.50036 9.18521 5.50036 9.072C5.50036 8.9588 5.47468 8.84706 5.42525 8.74521C5.37583 8.64336 5.30394 8.55405 5.21501 8.484C3.20801 6.8955 2.04701 5.1405 1.76576 3.26625C1.73408 3.05856 1.74829 2.84645 1.80737 2.64484C1.86646 2.44322 1.96899 2.257 2.10776 2.09925C2.24959 1.93414 2.42542 1.80162 2.62321 1.71075C2.821 1.61988 3.03609 1.57281 3.25376 1.57275H10.7463C11.1865 1.57275 11.6043 1.764 11.8923 2.09925C12.175 2.42775 12.2965 2.84175 12.2335 3.264C11.9538 5.13 10.7935 6.88725 8.78276 8.4855C8.6946 8.5559 8.62342 8.64524 8.5745 8.7469C8.52558 8.84857 8.50018 8.95994 8.50018 9.07275C8.50018 9.18557 8.52558 9.29694 8.5745 9.3986C8.62342 9.50027 8.6946 9.58961 8.78276 9.66C10.7935 11.259 11.9545 13.0155 12.2335 14.8815C12.265 15.0888 12.2507 15.3006 12.1916 15.5018C12.1325 15.703 12.0301 15.8889 11.8915 16.0463L11.8923 16.0455ZM10.4553 4.104C10.5015 3.99012 10.519 3.86662 10.5063 3.74438C10.4935 3.62213 10.451 3.50489 10.3823 3.40296C10.3136 3.30103 10.221 3.21753 10.1125 3.15983C10.0039 3.10212 9.88291 3.07196 9.76001 3.072H4.23776C4.11495 3.07201 3.99402 3.10217 3.88559 3.15984C3.77716 3.21751 3.68455 3.30092 3.6159 3.40275C3.54725 3.50458 3.50466 3.62171 3.49186 3.74385C3.47906 3.86599 3.49645 3.98941 3.54251 4.10325C4.10351 5.493 5.26751 6.61275 6.14576 7.30725L6.53501 7.6155C6.66783 7.72067 6.83235 7.77776 7.00177 7.77749C7.17119 7.77722 7.33552 7.7196 7.46801 7.614L7.84901 7.31025C8.72876 6.6105 9.89501 5.487 10.4553 4.104ZM6.99926 6.06975C6.52601 5.688 5.97101 5.175 5.52476 4.57275H8.47076C8.02601 5.17125 7.47251 5.68575 6.99926 6.06975Z" fill="#7E7E7E"/>
</svg>
