<svg width="17" height="16" viewBox="0 0 17 16" fill="none" xmlns="http://www.w3.org/2000/svg">
<path d="M2.81804 4.2101C2.54034 4.21083 2.26526 4.15649 2.0087 4.05021C1.75214 3.94394 1.5192 3.78784 1.32336 3.59096L0.235812 2.62315C0.0962644 2.49874 0.0118562 2.32398 0.00115645 2.13733C-0.00954327 1.95068 0.0543419 1.76743 0.178758 1.62788C0.303174 1.48833 0.47793 1.40392 0.66458 1.39322C0.851231 1.38252 1.03449 1.44641 1.17404 1.57082L2.29046 2.56681C2.35438 2.63858 2.4323 2.69651 2.51944 2.73704C2.60658 2.77758 2.70109 2.79985 2.79716 2.80249C2.89323 2.80512 2.98882 2.78808 3.07805 2.75239C3.16729 2.7167 3.24827 2.66314 3.31603 2.59498L5.85459 0.17828C5.99109 0.0567553 6.16948 -0.00695596 6.35209 0.000603357C6.53469 0.00816268 6.70721 0.0864007 6.8332 0.218792C6.95919 0.351184 7.02879 0.527363 7.0273 0.710117C7.02581 0.892872 6.95334 1.06789 6.82521 1.19821L4.29722 3.60294C4.10265 3.79637 3.87187 3.94956 3.61806 4.05374C3.36425 4.15792 3.0924 4.21106 2.81804 4.2101ZM16.9055 2.80136C16.9055 2.61455 16.8313 2.43539 16.6992 2.30329C16.5671 2.1712 16.3879 2.09699 16.2011 2.09699H9.15738C8.97057 2.09699 8.79141 2.1712 8.65932 2.30329C8.52722 2.43539 8.45301 2.61455 8.45301 2.80136C8.45301 2.98817 8.52722 3.16733 8.65932 3.29943C8.79141 3.43152 8.97057 3.50573 9.15738 3.50573H16.2011C16.3879 3.50573 16.5671 3.43152 16.6992 3.29943C16.8313 3.16733 16.9055 2.98817 16.9055 2.80136ZM4.29722 9.23791L6.82521 6.83318C6.89577 6.77037 6.95297 6.694 6.99341 6.60863C7.03385 6.52325 7.05671 6.43061 7.06061 6.33623C7.06452 6.24184 7.0494 6.14763 7.01616 6.0592C6.98291 5.97078 6.93222 5.88995 6.86709 5.82151C6.80197 5.75308 6.72374 5.69845 6.63707 5.66086C6.5504 5.62328 6.45705 5.60352 6.36259 5.60274C6.26812 5.60197 6.17447 5.62021 6.0872 5.65638C5.99992 5.69254 5.92082 5.74589 5.85459 5.81325L3.31885 8.22995C3.18476 8.35817 3.00638 8.42973 2.82086 8.42973C2.63533 8.42973 2.45695 8.35817 2.32287 8.22995L1.20291 7.11352C1.07007 6.98522 0.892143 6.91422 0.707459 6.91583C0.522775 6.91743 0.346109 6.99151 0.215513 7.1221C0.084917 7.2527 0.0108389 7.42937 0.00923407 7.61405C0.00762922 7.79873 0.078626 7.97666 0.206933 8.10951L1.32336 9.22594C1.71758 9.62024 2.25166 9.84277 2.80923 9.84501C3.3668 9.84725 3.90266 9.62903 4.30004 9.23791H4.29722ZM16.9055 8.43633C16.9055 8.24952 16.8313 8.07036 16.6992 7.93827C16.5671 7.80617 16.3879 7.73196 16.2011 7.73196H9.15738C8.97057 7.73196 8.79141 7.80617 8.65932 7.93827C8.52722 8.07036 8.45301 8.24952 8.45301 8.43633C8.45301 8.62315 8.52722 8.80231 8.65932 8.9344C8.79141 9.0665 8.97057 9.14071 9.15738 9.14071H16.2011C16.3879 9.14071 16.5671 9.0665 16.6992 8.9344C16.8313 8.80231 16.9055 8.62315 16.9055 8.43633ZM4.29722 14.8729L6.82239 12.4682C6.89295 12.4053 6.95015 12.329 6.99059 12.2436C7.03103 12.1582 7.05389 12.0656 7.0578 11.9712C7.0617 11.8768 7.04658 11.7826 7.01334 11.6942C6.98009 11.6058 6.9294 11.5249 6.86427 11.4565C6.79915 11.3881 6.72092 11.3334 6.63425 11.2958C6.54758 11.2583 6.45424 11.2385 6.35977 11.2377C6.26531 11.2369 6.17165 11.2552 6.08438 11.2914C5.99711 11.3275 5.918 11.3809 5.85177 11.4482L3.31603 13.8649C3.24827 13.9331 3.16729 13.9867 3.07805 14.0223C2.98882 14.058 2.89323 14.0751 2.79716 14.0724C2.70109 14.0698 2.60658 14.0475 2.51944 14.007C2.4323 13.9665 2.35438 13.9085 2.29046 13.8368L1.17404 12.8408C1.03449 12.7164 0.851231 12.6525 0.66458 12.6632C0.47793 12.6739 0.303174 12.7583 0.178758 12.8978C0.0543419 13.0374 -0.00954327 13.2206 0.00115645 13.4073C0.0118562 13.5939 0.0962644 13.7687 0.235812 13.8931L1.32336 14.8609C1.71758 15.2552 2.25166 15.4777 2.80923 15.48C3.3668 15.4822 3.90266 15.264 4.30004 14.8729H4.29722ZM16.9055 14.0713C16.9055 13.8845 16.8313 13.7053 16.6992 13.5732C16.5671 13.4411 16.3879 13.3669 16.2011 13.3669H9.15738C8.97057 13.3669 8.79141 13.4411 8.65932 13.5732C8.52722 13.7053 8.45301 13.8845 8.45301 14.0713C8.45301 14.2581 8.52722 14.4373 8.65932 14.5694C8.79141 14.7015 8.97057 14.7757 9.15738 14.7757H16.2011C16.3879 14.7757 16.5671 14.7015 16.6992 14.5694C16.8313 14.4373 16.9055 14.2581 16.9055 14.0713Z" fill="#7E7E7E"/>
</svg>
