<svg width="15" height="12" viewBox="0 0 15 12" fill="none" xmlns="http://www.w3.org/2000/svg">
<path d="M13.5 4.99982H3.5L6.79 1.70982C6.88373 1.61685 6.95812 1.50625 7.00889 1.38439C7.05966 1.26253 7.0858 1.13183 7.0858 0.999816C7.0858 0.867804 7.05966 0.737098 7.00889 0.615239C6.95812 0.49338 6.88373 0.382779 6.79 0.289816C6.60264 0.103565 6.34919 -0.000976562 6.085 -0.000976562C5.82082 -0.000976562 5.56736 0.103565 5.38 0.289816L1.09 4.58982C0.714412 4.96317 0.502233 5.47024 0.5 5.99982C0.504867 6.52592 0.716844 7.02892 1.09 7.39982L5.38 11.6998C5.47324 11.7924 5.5838 11.8657 5.70537 11.9156C5.82694 11.9654 5.95714 11.9908 6.08854 11.9904C6.21993 11.9899 6.34995 11.9636 6.47116 11.9129C6.59238 11.8621 6.70242 11.7881 6.795 11.6948C6.88758 11.6016 6.96089 11.491 7.01075 11.3694C7.0606 11.2479 7.08602 11.1177 7.08556 10.9863C7.08509 10.8549 7.05875 10.7249 7.00804 10.6037C6.95733 10.4824 6.88324 10.3724 6.79 10.2798L3.5 6.99982H13.5C13.7652 6.99982 14.0196 6.89446 14.2071 6.70692C14.3946 6.51939 14.5 6.26503 14.5 5.99982C14.5 5.7346 14.3946 5.48025 14.2071 5.29271C14.0196 5.10517 13.7652 4.99982 13.5 4.99982Z" fill="#19A7CE"/>
</svg>
