<svg width="11" height="13" viewBox="0 0 11 13" fill="none" xmlns="http://www.w3.org/2000/svg">
<path d="M9.13352 12.4983C8.95696 12.4978 8.78225 12.4606 8.61947 12.389C8.4567 12.3173 8.3091 12.2126 8.18519 12.0808L5.25 9.02427L2.3148 12.0828C2.1263 12.2832 1.88454 12.4194 1.62106 12.4737C1.35757 12.528 1.08458 12.4979 0.837663 12.3873C0.588298 12.2822 0.374974 12.1008 0.225548 11.8668C0.0761213 11.6328 -0.00246234 11.357 5.88166e-05 11.0755V2.99964C5.88166e-05 2.33669 0.251476 1.7009 0.699 1.23213C1.14652 0.763354 1.7535 0.5 2.38639 0.5L8.1136 0.5C8.42698 0.5 8.73729 0.564655 9.02681 0.690274C9.31633 0.815892 9.5794 1.00001 9.80099 1.23213C10.0226 1.46424 10.1984 1.7398 10.3183 2.04307C10.4382 2.34634 10.4999 2.67138 10.4999 2.99964V11.0755C10.5026 11.3568 10.4243 11.6324 10.2752 11.8664C10.1262 12.1004 9.91325 12.2819 9.66424 12.3873C9.49615 12.4609 9.31571 12.4986 9.13352 12.4983ZM2.38639 1.49986C2.00666 1.49986 1.64247 1.65787 1.37396 1.93913C1.10544 2.2204 0.954593 2.60187 0.954593 2.99964V11.0755C0.954421 11.1588 0.977822 11.2403 1.02184 11.3096C1.06586 11.379 1.12852 11.4332 1.20191 11.4653C1.2753 11.4974 1.35612 11.506 1.43417 11.49C1.51222 11.474 1.58399 11.4341 1.64043 11.3754L4.91591 7.96542C5.00533 7.87231 5.1263 7.82004 5.25238 7.82004C5.37847 7.82004 5.49943 7.87231 5.58886 7.96542L8.86052 11.3744C8.91695 11.4331 8.98873 11.473 9.06678 11.489C9.14483 11.505 9.22565 11.4964 9.29904 11.4643C9.37243 11.4322 9.43509 11.378 9.47911 11.3086C9.52313 11.2393 9.54653 11.1578 9.54636 11.0745V2.99964C9.54636 2.60187 9.3955 2.2204 9.12699 1.93913C8.85847 1.65787 8.49429 1.49986 8.11455 1.49986H2.38639Z" fill="#444444"/>
</svg>
