<svg width="12" height="12" viewBox="0 0 12 12" fill="none" xmlns="http://www.w3.org/2000/svg">
<path d="M11.0001 0.99997C10.8438 0.843744 10.6319 0.755981 10.4109 0.755981C10.19 0.755981 9.97803 0.843744 9.82176 0.99997L6.00009 4.82164L2.17843 0.99997C2.02215 0.843744 1.81023 0.755981 1.58926 0.755981C1.36829 0.755981 1.15637 0.843744 1.00009 0.99997C0.843866 1.15624 0.756104 1.36817 0.756104 1.58914C0.756104 1.81011 0.843866 2.02203 1.00009 2.1783L4.82176 5.99997L1.00009 9.82164C0.843866 9.97791 0.756104 10.1898 0.756104 10.4108C0.756104 10.6318 0.843866 10.8437 1.00009 11C1.15637 11.1562 1.36829 11.244 1.58926 11.244C1.81023 11.244 2.02215 11.1562 2.17843 11L6.00009 7.1783L9.82176 11C9.97803 11.1562 10.19 11.244 10.4109 11.244C10.6319 11.244 10.8438 11.1562 11.0001 11C11.1563 10.8437 11.2441 10.6318 11.2441 10.4108C11.2441 10.1898 11.1563 9.97791 11.0001 9.82164L7.17843 5.99997L11.0001 2.1783C11.1563 2.02203 11.2441 1.81011 11.2441 1.58914C11.2441 1.36817 11.1563 1.15624 11.0001 0.99997Z" fill="#555555"/>
</svg>
