<svg width="12" height="12" viewBox="0 0 12 12" fill="none" xmlns="http://www.w3.org/2000/svg">
<path d="M11.5902 0.409802C11.3277 0.147406 10.9718 0 10.6006 0C10.2295 0 9.87355 0.147406 9.61108 0.409802L5.99155 4.02933L2.37202 0.409802C2.10804 0.154843 1.75449 0.0137646 1.3875 0.0169536C1.02051 0.0201426 0.66946 0.167343 0.409951 0.426852C0.150443 0.686361 0.00324193 1.03741 5.29109e-05 1.4044C-0.00313611 1.77139 0.137942 2.12494 0.392902 2.38892L4.01243 6.00845L0.392902 9.62798C0.137942 9.89196 -0.00313611 10.2455 5.29109e-05 10.6125C0.00324193 10.9795 0.150443 11.3305 0.409951 11.59C0.66946 11.8496 1.02051 11.9968 1.3875 11.9999C1.75449 12.0031 2.10804 11.8621 2.37202 11.6071L5.99155 7.98757L9.61108 11.6071C9.87506 11.8621 10.2286 12.0031 10.5956 11.9999C10.9626 11.9968 11.3136 11.8496 11.5731 11.59C11.8327 11.3305 11.9799 10.9795 11.983 10.6125C11.9862 10.2455 11.8452 9.89196 11.5902 9.62798L7.97067 6.00845L11.5902 2.38892C11.8526 2.12645 12 1.7705 12 1.39936C12 1.02822 11.8526 0.672278 11.5902 0.409802Z" fill="#555555"/>
</svg>
