<svg width="12" height="15" viewBox="0 0 12 15" fill="none" xmlns="http://www.w3.org/2000/svg">
<path d="M11.25 2.83333H9.44166C9.30627 2.17499 8.94806 1.58345 8.42739 1.15842C7.90673 0.733386 7.25545 0.500848 6.58333 0.5L5.41666 0.5C4.74454 0.500848 4.09327 0.733386 3.5726 1.15842C3.05194 1.58345 2.69372 2.17499 2.55833 2.83333H0.749997C0.595288 2.83333 0.446915 2.89479 0.337518 3.00419C0.228122 3.11358 0.166664 3.26196 0.166664 3.41667C0.166664 3.57138 0.228122 3.71975 0.337518 3.82915C0.446915 3.93854 0.595288 4 0.749997 4H1.33333V11.5833C1.33426 12.3566 1.64185 13.0979 2.18863 13.6447C2.73541 14.1915 3.47673 14.4991 4.25 14.5H7.75C8.52326 14.4991 9.26459 14.1915 9.81137 13.6447C10.3581 13.0979 10.6657 12.3566 10.6667 11.5833V4H11.25C11.4047 4 11.5531 3.93854 11.6625 3.82915C11.7719 3.71975 11.8333 3.57138 11.8333 3.41667C11.8333 3.26196 11.7719 3.11358 11.6625 3.00419C11.5531 2.89479 11.4047 2.83333 11.25 2.83333ZM5.41666 1.66667H6.58333C6.94516 1.66711 7.29799 1.77947 7.59344 1.98834C7.88889 2.19721 8.11249 2.49237 8.23358 2.83333H3.76641C3.8875 2.49237 4.11111 2.19721 4.40656 1.98834C4.70201 1.77947 5.05484 1.66711 5.41666 1.66667ZM9.5 11.5833C9.5 12.0475 9.31562 12.4926 8.98743 12.8208C8.65925 13.149 8.21413 13.3333 7.75 13.3333H4.25C3.78587 13.3333 3.34075 13.149 3.01256 12.8208C2.68437 12.4926 2.5 12.0475 2.5 11.5833V4H9.5V11.5833Z" fill="#444444"/>
<path d="M4.83333 11C4.98804 11 5.13642 10.9385 5.24581 10.8291C5.35521 10.7197 5.41667 10.5714 5.41667 10.4166V6.91665C5.41667 6.76194 5.35521 6.61356 5.24581 6.50417C5.13642 6.39477 4.98804 6.33331 4.83333 6.33331C4.67862 6.33331 4.53025 6.39477 4.42085 6.50417C4.31146 6.61356 4.25 6.76194 4.25 6.91665V10.4166C4.25 10.5714 4.31146 10.7197 4.42085 10.8291C4.53025 10.9385 4.67862 11 4.83333 11ZM7.16667 11C7.32138 11 7.46975 10.9385 7.57915 10.8291C7.68854 10.7197 7.75 10.5714 7.75 10.4166V6.91665C7.75 6.76194 7.68854 6.61356 7.57915 6.50417C7.46975 6.39477 7.32138 6.33331 7.16667 6.33331C7.01196 6.33331 6.86358 6.39477 6.75419 6.50417C6.64479 6.61356 6.58333 6.76194 6.58333 6.91665V10.4166C6.58333 10.5714 6.64479 10.7197 6.75419 10.8291C6.86358 10.9385 7.01196 11 7.16667 11Z" fill="#444444"/>
</svg>
