<svg width="14" height="15" viewBox="0 0 14 15" fill="none" xmlns="http://www.w3.org/2000/svg">
<path d="M13.0108 1.43732C12.6341 1.06126 12.1236 0.850037 11.5914 0.850037C11.0591 0.850037 10.5487 1.06126 10.172 1.43732L1.16162 10.4477C0.903593 10.7043 0.699004 11.0095 0.55969 11.3456C0.420377 11.6818 0.349106 12.0423 0.349999 12.4061V13.5435C0.349999 13.6904 0.408368 13.8314 0.512265 13.9353C0.616161 14.0392 0.757076 14.0975 0.904008 14.0975H2.04139C2.40524 14.0986 2.76568 14.0274 3.10185 13.8882C3.43801 13.749 3.74322 13.5444 3.99981 13.2865L13.0108 4.27551C13.3867 3.89889 13.5978 3.38852 13.5978 2.85641C13.5978 2.32431 13.3867 1.81394 13.0108 1.43732ZM3.21644 12.5031C2.90398 12.8135 2.4818 12.9882 2.04139 12.9895H1.45802V12.4061C1.45746 12.1878 1.50021 11.9715 1.5838 11.7698C1.66739 11.5681 1.79015 11.385 1.94499 11.2311L8.78312 4.39296L10.0573 5.66718L3.21644 12.5031ZM12.2268 3.49214L10.8385 4.88104L9.56427 3.60959L10.9532 2.22069C11.1221 2.05208 11.3512 1.95751 11.5899 1.95777C11.8286 1.95803 12.0574 2.0531 12.226 2.22207C12.3946 2.39105 12.4892 2.62008 12.4889 2.85878C12.4887 3.09748 12.3936 3.3263 12.2246 3.49491L12.2268 3.49214Z" fill="#444444"/>
</svg>
