<svg width="40" height="30" viewBox="0 0 40 30" fill="none" xmlns="http://www.w3.org/2000/svg">
<path d="M39.7015 13.635C38.2381 10.435 32.4998 0 19.9998 0C7.49979 0 1.76145 10.435 0.298119 13.635C0.101683 14.0638 0 14.53 0 15.0017C0 15.4734 0.101683 15.9395 0.298119 16.3683C1.76145 19.565 7.49979 30 19.9998 30C32.4998 30 38.2381 19.565 39.7015 16.365C39.8975 15.9366 39.999 15.4711 39.999 15C39.999 14.5289 39.8975 14.0634 39.7015 13.635ZM19.9998 26.6667C9.48812 26.6667 4.58312 17.7233 3.33312 15.0183C4.58312 12.2767 9.48812 3.33333 19.9998 3.33333C30.4865 3.33333 35.3931 12.2383 36.6665 15C35.3931 17.7617 30.4865 26.6667 19.9998 26.6667Z" fill="#444444"/>
<path d="M19.9994 6.66699C18.3512 6.66699 16.74 7.15573 15.3696 8.07141C13.9992 8.98709 12.9311 10.2886 12.3004 11.8113C11.6696 13.334 11.5046 15.0096 11.8261 16.6261C12.1477 18.2426 12.9414 19.7274 14.1068 20.8929C15.2722 22.0583 16.7571 22.852 18.3736 23.1735C19.9901 23.4951 21.6657 23.3301 23.1884 22.6993C24.7111 22.0686 26.0126 21.0005 26.9283 19.6301C27.8439 18.2597 28.3327 16.6485 28.3327 15.0003C28.33 12.791 27.4512 10.6729 25.889 9.11069C24.3268 7.54846 22.2087 6.66964 19.9994 6.66699ZM19.9994 20.0003C19.0104 20.0003 18.0437 19.7071 17.2215 19.1577C16.3993 18.6083 15.7584 17.8274 15.38 16.9137C15.0015 16.0001 14.9025 14.9948 15.0954 14.0249C15.2884 13.055 15.7646 12.1641 16.4638 11.4648C17.1631 10.7655 18.054 10.2893 19.0239 10.0964C19.9938 9.90347 20.9991 10.0025 21.9128 10.3809C22.8264 10.7594 23.6073 11.4002 24.1567 12.2225C24.7061 13.0447 24.9994 14.0114 24.9994 15.0003C24.9994 16.3264 24.4726 17.5982 23.5349 18.5359C22.5972 19.4735 21.3254 20.0003 19.9994 20.0003Z" fill="#444444"/>
</svg>
