<svg width="94" height="100" viewBox="0 0 94 100" fill="none" xmlns="http://www.w3.org/2000/svg">
<path fill-rule="evenodd" clip-rule="evenodd" d="M37.4731 9.14844C46.7424 9.14844 54.342 16.7285 54.342 25.9738V38.7439H63.5141V25.9738C63.5143 11.6752 51.8032 0 37.4731 0C23.143 0 11.4319 11.6752 11.4319 25.9738V38.7439H20.604V25.9738C20.6041 16.7285 28.2038 9.14844 37.4731 9.14844Z" fill="#CBC8DB"/>
<path fill-rule="evenodd" clip-rule="evenodd" d="M63.5144 25.9738C63.5144 11.6752 51.8032 5.6878e-06 37.4731 5.6878e-06C34.6174 -0.00188645 31.781 0.46832 29.0786 1.39161C30.1428 1.2587 31.2142 1.19203 32.2866 1.192C46.6167 1.192 58.3278 12.8729 58.3278 27.1658V38.744H63.5144V25.9738Z" fill="#C1BED8"/>
<path fill-rule="evenodd" clip-rule="evenodd" d="M10.3285 36.7363C4.9189 36.7363 0.49292 41.1508 0.49292 46.5465V61.1418C0.49292 81.4293 17.1332 98.0266 37.4732 98.0266C44.3923 98.0266 50.8826 96.1045 56.4294 92.7736L74.4535 57.925V46.5465C74.4535 41.151 70.0275 36.7363 64.6179 36.7363H10.3285Z" fill="#C2D8C2"/>
<path fill-rule="evenodd" clip-rule="evenodd" d="M37.4732 51.0864C33.0529 51.0864 29.4675 54.6567 29.4675 59.0657C29.4675 61.9118 30.9599 64.4042 33.2015 65.8243L31.5212 76.7446C31.5084 76.8281 31.5138 76.9134 31.537 76.9946C31.5602 77.0759 31.6007 77.1511 31.6557 77.2152C31.7107 77.2793 31.7789 77.3308 31.8556 77.3661C31.9324 77.4014 32.0159 77.4196 32.1003 77.4196H42.8457C42.9301 77.4196 43.0136 77.4014 43.0904 77.3661C43.1671 77.3308 43.2353 77.2793 43.2903 77.2152C43.3453 77.1511 43.3858 77.0759 43.409 76.9946C43.4322 76.9134 43.4376 76.8281 43.4248 76.7446L41.7445 65.8243C43.9861 64.4042 45.4785 61.9116 45.4785 59.0657C45.4789 54.6567 41.8935 51.0864 37.4732 51.0864Z" fill="#374144"/>
<path fill-rule="evenodd" clip-rule="evenodd" d="M72.3606 57.8223C60.6838 57.8223 51.22 67.2615 51.22 78.9082C51.22 84.2182 53.1872 89.0662 56.4293 92.7734C60.3063 97.1994 66.0075 99.9998 72.3606 99.9998C84.0373 99.9998 93.5069 90.5547 93.5069 78.9082C93.5069 67.9688 85.1524 58.9744 74.4536 57.925C73.758 57.856 73.0595 57.8217 72.3606 57.8223Z" fill="#19A7CE"/>
<path fill-rule="evenodd" clip-rule="evenodd" d="M36.158 51.1892C39.1658 52.3583 41.3044 55.3128 41.3044 58.7692C41.3074 60.1351 40.967 61.4797 40.3145 62.6796C39.662 63.8796 38.7185 64.8962 37.5705 65.6362L39.3546 77.4196H42.846C42.9305 77.4196 43.014 77.4014 43.0907 77.3661C43.1675 77.3308 43.2357 77.2793 43.2907 77.2152C43.3457 77.1511 43.3862 77.0759 43.4094 76.9946C43.4326 76.9134 43.438 76.8281 43.4251 76.7446L41.7449 65.8243C43.9865 64.4042 45.4789 61.9116 45.4789 59.0657C45.4789 54.6569 41.8935 51.0864 37.4732 51.0864C37.0273 51.0864 36.5869 51.1206 36.158 51.1892Z" fill="#374144"/>
<path fill-rule="evenodd" clip-rule="evenodd" d="M93.5069 78.9082C93.5069 67.9687 85.1524 58.9744 74.4536 57.925C73.7675 57.8566 73.0698 57.8223 72.3606 57.8223C70.8683 57.8223 69.4042 57.9762 67.9976 58.2729C78.6679 59.3451 86.9995 68.3281 86.9995 79.2561C86.9995 89.4084 79.8001 97.8838 70.222 99.8914C70.9253 99.9598 71.6401 99.9998 72.3606 99.9998C84.0374 99.9998 93.5069 90.5547 93.5069 78.9082Z" fill="#19A7CE"/>
<path fill-rule="evenodd" clip-rule="evenodd" d="M74.4536 46.5465C74.4536 41.151 70.0276 36.7363 64.618 36.7363H54.342C59.7516 36.7363 64.1776 41.1508 64.1776 46.5465V59.4594C65.3956 58.9518 66.6764 58.5469 67.9975 58.273C69.4323 57.9722 70.8946 57.8212 72.3606 57.8225C73.0696 57.8225 73.7672 57.8566 74.4536 57.9252V46.5465Z" fill="#A9BEA9"/>
<path d="M72.3607 87.1761C72.1626 87.1761 71.9663 87.1371 71.7832 87.0613C71.6002 86.9854 71.4338 86.8743 71.2937 86.7342C71.1535 86.594 71.0424 86.4277 70.9666 86.2446C70.8907 86.0615 70.8517 85.8653 70.8518 85.6671V78.8798C70.8518 78.4796 71.0107 78.0958 71.2937 77.8128C71.5767 77.5298 71.9605 77.3708 72.3607 77.3708C73.7498 77.3708 75.0406 76.8165 75.9961 75.8105C76.9443 74.8116 77.4272 73.503 77.3555 72.1255C77.2195 69.5327 75.0725 67.4601 72.4676 67.4075C72.4328 67.4067 72.3979 67.4064 72.3631 67.4064C69.8727 67.4064 67.7537 69.2312 67.4109 71.6907C67.3794 71.9222 67.3633 72.1555 67.3627 72.3892C67.3627 72.7894 67.2037 73.1732 66.9207 73.4562C66.6377 73.7392 66.2539 73.8982 65.8537 73.8982C65.4535 73.8982 65.0697 73.7392 64.7867 73.4562C64.5037 73.1732 64.3447 72.7894 64.3447 72.3892C64.3447 72.0288 64.3705 71.6556 64.4211 71.2802C64.9807 67.2661 68.4648 64.3103 72.5291 64.3897C76.7068 64.4741 80.1512 67.8028 80.3697 71.9679C80.485 74.1808 79.7092 76.2831 78.1854 77.8882C77.0268 79.1083 75.5064 79.929 73.8701 80.2442V85.6669C73.87 86.0671 73.7109 86.451 73.4278 86.7339C73.1448 87.0169 72.761 87.176 72.3607 87.1761ZM72.3625 93.4329C72.1432 93.4332 71.9264 93.3856 71.7274 93.2936C71.5283 93.2015 71.3517 93.0672 71.2098 92.8999C71.068 92.7327 70.9643 92.5365 70.906 92.325C70.8477 92.1136 70.8362 91.892 70.8723 91.6757L70.8779 91.6415C70.9103 91.4459 70.9809 91.2587 71.0857 91.0904C71.1906 90.9222 71.3276 90.7763 71.4889 90.661C71.6502 90.5458 71.8326 90.4636 72.0258 90.4189C72.2189 90.3743 72.419 90.3683 72.6145 90.4011C73.0092 90.467 73.3616 90.6869 73.5942 91.0125C73.8268 91.3382 73.9206 91.7428 73.8549 92.1376L73.8492 92.1718C73.7905 92.5238 73.609 92.8437 73.3368 93.0746C73.0646 93.3055 72.7194 93.4324 72.3625 93.4329Z" fill="#ECECEC"/>
</svg>
