<svg width="20" height="20" viewBox="0 0 20 20" fill="none" xmlns="http://www.w3.org/2000/svg">
<rect x="1.5" y="3.5" width="17" height="1" rx="0.5" fill="#444444" stroke="#444444" stroke-linejoin="round"/>
<rect x="2.5" y="14.5" width="9" height="1" transform="rotate(-90 2.5 14.5)" fill="#444444" stroke="#444444" stroke-linejoin="round"/>
<mask id="path-3-inside-1_165_22" fill="white">
<rect x="6" y="9" width="3" height="2" rx="0.2" transform="rotate(-90 6 9)"/>
</mask>
<rect x="6" y="9" width="3" height="2" rx="0.2" transform="rotate(-90 6 9)" fill="#444444" stroke="#444444" stroke-width="2" stroke-linejoin="round" mask="url(#path-3-inside-1_165_22)"/>
<mask id="path-4-inside-2_165_22" fill="white">
<rect x="9" y="9" width="3" height="2" rx="0.2" transform="rotate(-90 9 9)"/>
</mask>
<rect x="9" y="9" width="3" height="2" rx="0.2" transform="rotate(-90 9 9)" fill="#444444" stroke="#444444" stroke-width="2" stroke-linejoin="round" mask="url(#path-4-inside-2_165_22)"/>
<mask id="path-5-inside-3_165_22" fill="white">
<rect x="12" y="9" width="3" height="2" rx="0.2" transform="rotate(-90 12 9)"/>
</mask>
<rect x="12" y="9" width="3" height="2" rx="0.2" transform="rotate(-90 12 9)" fill="#444444" stroke="#444444" stroke-width="2" stroke-linejoin="round" mask="url(#path-5-inside-3_165_22)"/>
<mask id="path-6-inside-4_165_22" fill="white">
<rect x="6" y="14" width="3" height="2" rx="0.2" transform="rotate(-90 6 14)"/>
</mask>
<rect x="6" y="14" width="3" height="2" rx="0.2" transform="rotate(-90 6 14)" fill="#444444" stroke="#444444" stroke-width="2" stroke-linejoin="round" mask="url(#path-6-inside-4_165_22)"/>
<mask id="path-7-inside-5_165_22" fill="white">
<rect x="9" y="14" width="3" height="2" rx="0.2" transform="rotate(-90 9 14)"/>
</mask>
<rect x="9" y="14" width="3" height="2" rx="0.2" transform="rotate(-90 9 14)" fill="#444444" stroke="#444444" stroke-width="2" stroke-linejoin="round" mask="url(#path-7-inside-5_165_22)"/>
<mask id="path-8-inside-6_165_22" fill="white">
<rect x="12" y="14" width="3" height="2" rx="0.2" transform="rotate(-90 12 14)"/>
</mask>
<rect x="12" y="14" width="3" height="2" rx="0.2" transform="rotate(-90 12 14)" fill="#444444" stroke="#444444" stroke-width="2" stroke-linejoin="round" mask="url(#path-8-inside-6_165_22)"/>
<rect x="16.5" y="14.5" width="9" height="1" transform="rotate(-90 16.5 14.5)" fill="#D9D9D9" stroke="#444444" stroke-linejoin="round"/>
<rect x="1.5" y="15.5" width="17" height="1" rx="0.5" fill="#444444" stroke="#444444" stroke-linejoin="round"/>
</svg>
