<svg width="24" height="24" viewBox="0 0 24 24" fill="none" xmlns="http://www.w3.org/2000/svg">
<path d="M20.1949 18.7814H3.80506C3.27232 18.7808 2.76157 18.5689 2.38489 18.1922C2.0082 17.8155 1.79634 17.3047 1.79578 16.772V6.64973C1.79634 6.11699 2.0082 5.60623 2.38489 5.22951C2.76157 4.85278 3.27232 4.64087 3.80506 4.64026H20.1949C20.7277 4.64087 21.2384 4.85278 21.6151 5.22951C21.9918 5.60623 22.2037 6.11699 22.2042 6.64973V16.772C22.2037 17.3047 21.9918 17.8155 21.6151 18.1922C21.2384 18.5689 20.7277 18.7808 20.1949 18.7814ZM3.80506 5.40826C3.47592 5.40861 3.16038 5.53953 2.92766 5.77228C2.69495 6.00503 2.56408 6.3206 2.56378 6.64973V16.772C2.56408 17.1011 2.69495 17.4167 2.92766 17.6494C3.16038 17.8822 3.47592 18.0131 3.80506 18.0134H20.1949C20.5241 18.0131 20.8396 17.8822 21.0723 17.6494C21.3051 17.4167 21.4359 17.1011 21.4362 16.772V6.64973C21.4359 6.3206 21.3051 6.00503 21.0723 5.77228C20.8396 5.53953 20.5241 5.40861 20.1949 5.40826H3.80506Z" fill="white"/>
<path d="M12 13.9707C11.9064 13.9708 11.816 13.9366 11.7458 13.8747L2.49139 5.70552L2.99962 5.12952L12 13.0752L21.0008 5.13048L21.509 5.70648L12.2546 13.8757C12.1842 13.9374 12.0936 13.9713 12 13.9707Z" fill="white"/>
<path d="M2.28247 17.5756L8.49943 10.4918L9.07716 10.9987L2.8602 18.0823L2.28247 17.5756ZM14.9424 10.9914L15.5199 10.4845L21.7371 17.568L21.1595 18.0748L14.9424 10.9914Z" fill="white"/>
</svg>
