<svg width="84" height="34" viewBox="0 0 84 34" fill="none" xmlns="http://www.w3.org/2000/svg">
<path d="M78.2976 5.98637C77.9462 5.80345 77.5196 5.95962 77.3481 6.3389L76.6537 7.86491L76.0973 7.57932L76.8293 5.97295C76.8293 5.96851 76.8335 5.96406 76.8335 5.95953C76.8377 5.95064 76.8418 5.93722 76.8461 5.92833C76.959 5.62941 77.0887 5.27688 77.1347 4.87973C77.277 3.69727 76.8545 2.44788 76.0011 1.53315C75.1895 0.663034 73.9471 0.172201 72.7674 0.248022C72.5206 0.265888 72.2571 0.314954 71.9852 0.399752C71.5543 0.533615 71.1318 0.765611 70.7344 1.09138C70.4499 1.32338 70.0525 1.72052 69.7806 2.27829C69.7806 2.28273 69.7764 2.28717 69.7764 2.29171C69.7764 2.29624 69.7722 2.3006 69.7722 2.3006L67.1786 8.00766C67.1652 8.03091 67.1526 8.05472 67.141 8.07904C67.1284 8.10135 67.12 8.1281 67.1117 8.15486L60.3934 22.9246C60.2921 23.1498 60.2432 23.3977 60.2511 23.6474V23.6518L60.4017 28.4129C60.4174 28.8674 60.5766 29.3029 60.8535 29.6488L60.4561 30.5055C60.2805 30.8804 60.4269 31.3355 60.7782 31.5229C60.8756 31.5752 60.9829 31.6027 61.0919 31.6033C61.225 31.6032 61.3555 31.5635 61.4686 31.4886C61.5817 31.4137 61.6729 31.3066 61.732 31.1794L62.1168 30.345C62.1754 30.3494 62.2297 30.3539 62.2883 30.3539C62.6816 30.3539 63.0706 30.2245 63.3969 29.9657L67.0028 27.1457C67.0781 27.0877 67.1492 27.0163 67.212 26.9449C67.2245 26.9315 67.2329 26.9181 67.2455 26.9047C67.325 26.8066 67.3919 26.695 67.4463 26.579L75.4739 8.94017L76.0303 9.22577L72.4537 17.0835C72.2822 17.4584 72.4286 17.9135 72.7842 18.0964C72.8846 18.1499 72.9892 18.1722 73.0937 18.1722C73.3573 18.1722 73.6125 18.016 73.7338 17.7439L77.574 9.30603C77.595 9.27483 77.6159 9.2391 77.6326 9.20337C77.6494 9.16764 77.6577 9.13644 77.6703 9.10071L78.6283 6.99462C78.7996 6.62441 78.649 6.1693 78.2976 5.98637ZM62.552 28.7476C62.4892 28.7956 62.4163 28.8264 62.3397 28.8372C62.2631 28.8481 62.1852 28.8388 62.1127 28.8101C62.091 28.7958 62.0686 28.7824 62.0458 28.7699C62.0332 28.7655 62.0249 28.761 62.0123 28.7565C61.891 28.6673 61.8158 28.5245 61.8115 28.3683L61.7111 25.2672C62.6523 26.048 63.7358 26.6102 64.8904 26.9226L62.552 28.7476ZM66.2917 25.6376C64.5785 25.4583 62.9825 24.6285 61.7948 23.2994L68.1031 9.43109L72.6084 11.7558L66.2917 25.6376ZM75.7208 4.68792C75.6957 4.8976 75.6162 5.12071 75.5367 5.33048L73.2359 10.3861L68.7263 8.06135L71.0355 2.98342C71.161 2.73801 71.3575 2.49259 71.6002 2.29624C71.8512 2.091 72.1189 1.93927 72.3741 1.85892C72.5456 1.80541 72.7088 1.77412 72.8468 1.76523C73.6207 1.71616 74.4615 2.04638 74.9886 2.60859C75.5242 3.17969 75.8044 3.97842 75.7208 4.68792Z" fill="#8D8D8D"/>
<path d="M1 31.8214C7.15016 32.4166 13.3766 31.2305 19.5424 31.6158C22.2816 31.787 24.8263 32.7466 27.5993 32.7466C30.1569 32.7466 31.619 32.227 33.8059 30.9348C35.5154 29.9246 36.5344 30.995 38.2391 31.4745C39.8979 31.941 41.0339 31.706 42.6851 31.4102C45.0344 30.9895 47.7622 30.5992 50.1124 31.1275C51.2857 31.3913 52.2866 31.8081 53.5048 31.4359C54.9777 30.9859 56.0052 29.6696 57.6682 30.4336C58.8163 30.9612 59.6458 31.1275 60.9063 31.1275" stroke="#8D8D8D" stroke-linecap="round"/>
</svg>
