<svg width="262" height="170" viewBox="0 0 262 170" fill="none" xmlns="http://www.w3.org/2000/svg">
<g clip-path="url(#clip0_336_1083)">
<path d="M238.972 169.497L231.489 146.898C231.489 146.898 239.719 155.135 239.719 161.894L238.242 146.265C238.242 146.265 242.463 151.967 242.041 160.627C241.619 169.286 238.972 169.497 238.972 169.497Z" fill="#E6E6E6"/>
<path d="M78.2753 148.92L70.9722 126.864C70.9722 126.864 79.0051 134.903 79.0051 141.499L77.5633 126.246C77.5633 126.246 81.6828 131.811 81.2709 140.262C80.8589 148.714 78.2753 148.92 78.2753 148.92Z" fill="#E6E6E6"/>
<path d="M192.263 159.097C192.276 173.606 163.521 169.143 128.319 169.174C93.1168 169.204 64.7972 173.716 64.7847 159.208C64.7722 144.699 93.5162 141.518 128.718 141.488C163.921 141.458 192.251 144.589 192.263 159.097Z" fill="#E6E6E6"/>
<path d="M262 169.166H0V169.829H262V169.166Z" fill="#3F3D56"/>
<path d="M167.592 139.504H162.99L160.8 121.739H167.592V139.504Z" fill="#A0616A"/>
<path d="M159.192 138.188H168.579V143.78H154.115V143.269C154.115 141.921 154.649 140.629 155.602 139.676C156.554 138.723 157.845 138.187 159.192 138.188Z" fill="#2F2E41"/>
<path d="M201.42 165.723H196.818L194.628 147.958H201.42V165.723Z" fill="#A0616A"/>
<path d="M193.02 164.407H202.407V170H187.942V169.488C187.942 168.141 188.477 166.848 189.429 165.895C190.382 164.943 191.673 164.407 193.02 164.407Z" fill="#2F2E41"/>
<path d="M222.649 112.947C222.967 112.561 223.197 112.11 223.322 111.625C223.447 111.141 223.464 110.634 223.372 110.142C223.281 109.65 223.083 109.184 222.792 108.777C222.501 108.37 222.124 108.032 221.688 107.786L210.999 64.2104L204.165 67.1532L216.879 109.287C216.515 110.047 216.442 110.914 216.674 111.724C216.907 112.534 217.428 113.231 218.139 113.682C218.85 114.133 219.702 114.308 220.533 114.172C221.364 114.037 222.117 113.601 222.649 112.947Z" fill="#A0616A"/>
<path d="M214.312 24.8803C213.93 24.4812 213.466 24.1706 212.952 23.9705C212.437 23.7704 211.885 23.6856 211.335 23.7221C210.784 23.7586 210.248 23.9154 209.765 24.1816C209.281 24.4478 208.862 24.8169 208.536 25.2628L191.992 27.1636L194.509 33.5497L209.555 30.7316C210.34 31.2294 211.279 31.4217 212.197 31.2722C213.114 31.1227 213.944 30.6418 214.53 29.9205C215.117 29.1993 215.418 28.2878 215.378 27.3589C215.338 26.4299 214.958 25.548 214.312 24.8803Z" fill="#A0616A"/>
<path d="M187.048 108.428L194.267 162.651L203.253 160.8C203.253 160.8 201.931 121.311 206.424 116.55C210.917 111.789 200.646 103.45 200.646 103.45L187.048 108.428Z" fill="#2F2E41"/>
<path d="M190.033 93.4931L186.717 98.4715C186.717 98.4715 161.18 87.8511 161.18 104.778C161.18 121.704 159.718 133.191 159.19 133.984C158.661 134.778 165.305 136.837 168.476 136.308C168.476 136.308 172.388 109.02 172.124 107.433C172.124 107.433 197.174 119.724 201.931 118.666C206.688 117.608 207.812 113.863 208.605 111.747C209.398 109.632 208.273 92.8293 208.273 92.8293L192.417 87.9868L190.033 93.4931Z" fill="#2F2E41"/>
<path d="M190.48 63.602L189.535 62.4668C189.535 62.4668 178.948 38.6273 183.107 32.1944C187.266 25.7615 205.416 24.8155 205.983 25.1939C206.55 25.5723 204.628 30.4852 205.952 32.7557C205.952 32.7557 191.892 35.8062 190.947 36.1846C190.001 36.563 198.232 50.547 198.232 50.547L197.286 59.0611L190.48 63.602Z" fill="#CCCCCC"/>
<path d="M209.008 51.8718C209.008 51.8718 199.177 53.007 198.799 53.007C198.421 53.007 198.232 50.5474 198.232 50.5474L189.535 62.4671C189.535 62.4671 185.25 97.0477 186.385 96.4801C187.519 95.9125 208.441 99.1724 208.63 97.6587C208.819 96.1451 208.441 88.577 209.008 88.1986C209.575 87.8202 218.839 64.3591 218.839 64.3591C218.839 64.3591 217.894 59.4399 214.68 57.7371C211.466 56.0342 209.008 51.8718 209.008 51.8718Z" fill="#CCCCCC"/>
<path d="M215.814 61.1426L218.839 64.359C218.839 64.359 223.334 101.319 220.876 102.454C218.418 103.589 213.58 103.45 213.58 103.45L208.819 85.9281L215.814 61.1426Z" fill="#CCCCCC"/>
<path d="M199.561 49.5309C204.367 49.5309 208.263 45.6319 208.263 40.8223C208.263 36.0127 204.367 32.1138 199.561 32.1138C194.755 32.1138 190.859 36.0127 190.859 40.8223C190.859 45.6319 194.755 49.5309 199.561 49.5309Z" fill="#A0616A"/>
<path d="M197.519 42.1812C197.402 40.3742 195.124 40.3123 193.314 40.2952C191.505 40.2781 189.342 40.3427 188.318 38.8496C187.641 37.8629 187.771 36.493 188.33 35.4351C188.888 34.3772 189.808 33.5636 190.712 32.7808C193.048 30.76 195.454 28.7551 198.258 27.4616C201.062 26.1682 204.347 25.6455 207.255 26.6838C210.827 27.9593 215.655 34.5252 216.072 38.2975C216.489 42.0698 214.983 45.9153 212.443 48.7343C209.904 51.5532 204.092 50.4158 200.434 51.4186C202.658 48.269 201.192 42.5462 197.63 41.0754L197.519 42.1812Z" fill="#2F2E41"/>
<path d="M119.963 154.827C131.501 154.827 140.853 145.468 140.853 133.922C140.853 122.376 131.501 113.016 119.963 113.016C108.426 113.016 99.0732 122.376 99.0732 133.922C99.0732 145.468 108.426 154.827 119.963 154.827Z" fill="#19A7CE"/>
<path d="M106.013 111.53C103.117 111.531 100.284 110.691 97.8558 109.113C95.4276 107.535 93.5083 105.287 92.3304 102.64L59.1817 27.9331C58.0836 25.4584 57.5029 22.7851 57.4752 20.0776C57.4474 17.37 57.9733 14.6854 59.0205 12.1887C60.0676 9.69205 61.6139 7.43606 63.5644 5.55943C65.5148 3.68281 67.8281 2.2252 70.3621 1.27619C72.8962 0.32719 75.5973 -0.0931598 78.2997 0.040988C81.002 0.175136 83.6484 0.860945 86.0761 2.05626C88.5038 3.25157 90.6617 4.93114 92.4169 6.99172C94.1722 9.05231 95.4878 11.4504 96.2829 14.0385L120.287 92.1709C120.974 94.4073 121.127 96.7739 120.735 99.0804C120.342 101.387 119.415 103.569 118.027 105.452C116.638 107.335 114.828 108.865 112.742 109.921C110.655 110.977 108.351 111.528 106.013 111.53Z" fill="#19A7CE"/>
</g>
<defs>
<clipPath id="clip0_336_1083">
<rect width="262" height="170" fill="white"/>
</clipPath>
</defs>
</svg>
