<svg width="38" height="38" viewBox="0 0 38 38" fill="none" xmlns="http://www.w3.org/2000/svg">
<path d="M36.1736 1.67795C35.0975 0.60349 33.639 0 32.1183 0C30.5976 0 29.1391 0.60349 28.0629 1.67795L2.31895 27.4219C1.58172 28.155 0.99718 29.027 0.599142 29.9875C0.201104 30.9479 -0.00252941 31.9778 2.37135e-05 33.0174V36.2671C2.37135e-05 36.6869 0.166791 37.0895 0.463639 37.3864C0.760487 37.6832 1.1631 37.85 1.58291 37.85H4.83256C5.87214 37.8529 6.90197 37.6496 7.86244 37.2518C8.82292 36.854 9.69495 36.2697 10.428 35.5326L36.1736 9.78706C37.2476 8.71101 37.8508 7.25281 37.8508 5.73251C37.8508 4.2122 37.2476 2.75401 36.1736 1.67795ZM8.18985 33.2944C7.29711 34.1812 6.09089 34.6806 4.83256 34.6842H3.16579V33.0174C3.16419 32.3936 3.28633 31.7757 3.52516 31.1994C3.76399 30.6231 4.11475 30.0999 4.55714 29.6601L24.0947 10.1226L27.7353 13.7633L8.18985 33.2944ZM33.9338 7.54886L29.9671 11.5171L26.3265 7.88443L30.2948 3.91615C30.7776 3.43442 31.4319 3.16421 32.114 3.16495C32.796 3.16569 33.4497 3.43733 33.9315 3.92011C34.4132 4.40288 34.6834 5.05725 34.6827 5.73926C34.6819 6.42127 34.4103 7.07505 33.9275 7.55678L33.9338 7.54886Z" fill="#444444"/>
</svg>
