<svg width="57" height="56" viewBox="0 0 57 56" fill="none" xmlns="http://www.w3.org/2000/svg">
<path fill-rule="evenodd" clip-rule="evenodd" d="M28.5 0C13.0563 0 0.5 12.5563 0.5 28C0.5 43.4437 13.0563 56 28.5 56C43.9437 56 56.5 43.4437 56.5 28C56.5 12.5563 43.9437 0 28.5 0Z" fill="#53BDDA"/>
<path fill-rule="evenodd" clip-rule="evenodd" d="M42.0405 18.5607C42.7187 19.2389 42.7187 20.3545 42.0405 21.0326L25.6343 37.4389C25.2952 37.7779 24.8468 37.9529 24.3983 37.9529C23.9499 37.9529 23.5015 37.7779 23.1624 37.4389L14.9593 29.2357C14.2812 28.5576 14.2812 27.442 14.9593 26.7639C15.6374 26.0857 16.753 26.0857 17.4312 26.7639L24.3983 33.7311L39.5687 18.5607C40.2468 17.8717 41.3624 17.8717 42.0405 18.5607Z" fill="white"/>
</svg>
