<svg width="104" height="100" viewBox="0 0 104 100" fill="none" xmlns="http://www.w3.org/2000/svg">
<g clip-path="url(#clip0_364_1985)">
<path d="M54.5774 63.6561C54.6214 63.7014 54.6618 63.7501 54.6983 63.8018L60.3611 63.6632L61.0217 62.4561L62.9739 63.2149L62.0121 65.4657C61.9344 65.6475 61.7998 65.7992 61.6285 65.8981C61.4572 65.9969 61.2585 66.0375 61.0622 66.0138L54.6643 65.2409C54.5133 65.4319 54.3078 65.5725 54.0751 65.6439C53.8423 65.7154 53.5933 65.7142 53.3612 65.6407C53.1291 65.5671 52.9249 65.4246 52.7757 65.2322C52.6266 65.0397 52.5395 64.8065 52.5262 64.5633C52.5129 64.3202 52.5739 64.0788 52.7011 63.8712C52.8283 63.6636 53.0157 63.4997 53.2384 63.4012C53.4611 63.3027 53.7084 63.2743 53.9476 63.3199C54.1868 63.3654 54.4065 63.4827 54.5774 63.6561Z" fill="#FFB7B7"/>
<path d="M73.0378 98.0473H71.1759L70.29 90.8652L73.0381 90.8654L73.0378 98.0473Z" fill="#FFB7B7"/>
<path d="M73.5126 99.8524L67.5088 99.8522V99.7763C67.5088 99.1565 67.755 98.5622 68.1933 98.1239C68.6315 97.6857 69.2259 97.4395 69.8456 97.4395H69.8458L73.5127 97.4396L73.5126 99.8524Z" fill="#2F2E41"/>
<path d="M56.1302 98.0054L54.418 97.2739L56.4246 90.3213L58.9517 91.4009L56.1302 98.0054Z" fill="#FFB7B7"/>
<path d="M55.858 99.8522L50.3369 97.4935L50.3667 97.4237C50.6102 96.8538 51.0701 96.4039 51.6453 96.1731C52.2205 95.9422 52.8638 95.9493 53.4337 96.1927L53.4338 96.1928L56.8059 97.6334L55.858 99.8522Z" fill="#2F2E41"/>
<path d="M63.9873 65.2117L63.8525 67.3936L67.7884 67.8148L71.9065 68.2555L70.6944 64.9424L63.9873 65.2117Z" fill="#FFB7B7"/>
<path d="M63.7282 67.4221L62.1992 56.7631L64.8493 55.8946L65.6277 54.8271L69.4155 55.0513L69.9716 56.297L71.9913 57.2513L71.6809 63.0158L71.9074 67.838L63.7282 67.4221Z" fill="#19A7CE"/>
<path d="M62.7659 64.566L60.0703 63.4875L60.0818 63.4395C60.0934 63.3912 61.2407 58.5968 61.393 57.8264C61.5517 57.0237 62.1315 56.8018 62.1561 56.7928L62.1741 56.7861L63.2409 57.1108L63.7094 60.7921L62.7659 64.566Z" fill="#19A7CE"/>
<path d="M57.517 96.7431L53.9287 96.007L59.6638 80.1819L61.6266 74.7841C61.6266 74.7841 62.8715 70.4562 63.434 68.7814L63.7734 66.5342L71.8087 67.4236C71.8087 67.4236 74.0529 70.7194 73.3711 76.0915L73.6795 96.283L70.0912 96.4671L67.0857 76.1029L61.8106 87.2664C61.8106 87.2664 60.148 92.0302 58.9584 93.0628L57.517 96.7431Z" fill="#2F2E41"/>
<path d="M68.5863 68.1739C68.6495 68.1724 68.7127 68.1759 68.7753 68.1843L72.5239 63.9375L72.0879 62.6323L73.9717 61.7168L74.9682 63.9524C75.0487 64.133 75.0684 64.3349 75.0244 64.5276C74.9805 64.7204 74.8751 64.8937 74.7243 65.0216L69.8075 69.1877C69.845 69.4283 69.8083 69.6745 69.7024 69.8938C69.5965 70.113 69.4264 70.2948 69.2147 70.415C69.0029 70.5352 68.7596 70.5881 68.5171 70.5666C68.2746 70.5452 68.0443 70.4504 67.857 70.2948C67.6696 70.1393 67.5341 69.9305 67.4684 69.696C67.4026 69.4616 67.4098 69.2127 67.489 68.9824C67.5682 68.7522 67.7156 68.5515 67.9116 68.4071C68.1076 68.2626 68.3429 68.1813 68.5863 68.1739Z" fill="#FFB7B7"/>
<path d="M72.2249 64.3501L70.6611 60.6718L71.271 58.1097L71.9281 57.2795C71.9763 57.2589 72.0282 57.2486 72.0805 57.249C72.1329 57.2495 72.1845 57.2609 72.2323 57.2824C72.4746 57.3799 72.681 57.6788 72.8457 58.1709L74.3112 62.3452L72.2249 64.3501Z" fill="#19A7CE"/>
<path d="M64.1123 53.4635V50.6905C64.1123 49.705 64.5038 48.7598 65.2007 48.063C65.8975 47.3661 66.8427 46.9746 67.8282 46.9746C68.8137 46.9746 69.7589 47.3661 70.4557 48.063C71.1526 48.7598 71.5441 49.705 71.5441 50.6905V53.4635C71.5439 53.5959 71.4913 53.7228 71.3977 53.8163C71.3041 53.9099 71.1773 53.9626 71.0449 53.9627H64.6115C64.4791 53.9625 64.3522 53.9099 64.2587 53.8163C64.1651 53.7228 64.1125 53.5959 64.1123 53.4635Z" fill="#2F2E41"/>
<path d="M67.0642 53.8989C68.5688 53.8989 69.7886 52.6792 69.7886 51.1746C69.7886 49.6699 68.5688 48.4502 67.0642 48.4502C65.5596 48.4502 64.3398 49.6699 64.3398 51.1746C64.3398 52.6792 65.5596 53.8989 67.0642 53.8989Z" fill="#FFB7B7"/>
<path d="M63.2324 50.9131C63.2333 50.1337 63.5433 49.3866 64.0943 48.8355C64.6454 48.2845 65.3925 47.9745 66.1719 47.9736H66.7265C67.5058 47.9745 68.253 48.2845 68.804 48.8355C69.3551 49.3866 69.665 50.1338 69.6659 50.9131V50.9685H68.4938L68.0941 49.8491L68.0141 50.9685H67.4084L67.2067 50.4037L67.1663 50.9685H63.2324L63.2324 50.9131Z" fill="#2F2E41"/>
<path d="M66.7964 54.2751C66.7413 54.2006 66.7085 54.112 66.7016 54.0197C66.6947 53.9273 66.714 53.8349 66.7573 53.753C67.345 52.6351 68.1679 50.5695 67.0757 49.2956L66.9971 49.2041H70.1681V53.9649L67.2875 54.4731C67.2584 54.4783 67.2288 54.4809 67.1992 54.4809C67.1205 54.4809 67.043 54.4623 66.973 54.4265C66.903 54.3907 66.8424 54.3388 66.7964 54.2751Z" fill="#2F2E41"/>
<path d="M29.8057 96.4788L31.4884 97.0802L34.6088 90.8758L32.1252 89.9883L29.8057 96.4788Z" fill="#9F616A"/>
<path d="M28.7939 97.956L29.5733 95.7754L32.8872 96.9598C33.4469 97.1605 33.9041 97.5751 34.1585 98.1125C34.413 98.6499 34.4439 99.2663 34.2444 99.8265L34.2199 99.8951L28.7939 97.956Z" fill="#2F2E41"/>
<path d="M40.7483 98.1427L42.5353 98.1426L43.3855 91.25L40.748 91.2501L40.7483 98.1427Z" fill="#9F616A"/>
<path d="M40.293 97.5597L43.8122 97.5596H43.8123C44.1068 97.5596 44.3984 97.6176 44.6706 97.7303C44.9427 97.843 45.1899 98.0082 45.3981 98.2164C45.6064 98.4247 45.7716 98.6719 45.8843 98.944C45.997 99.2161 46.055 99.5077 46.0551 99.8023V99.8751L40.2931 99.8753L40.293 97.5597Z" fill="#2F2E41"/>
<path d="M36.6758 54.1079L37.4529 52.5723C37.4529 52.5723 40.3481 53.2976 40.6113 54.9756L36.6758 54.1079Z" fill="#F1F1F1"/>
<path d="M33.469 71.6665L35.5825 83.4604L29.9707 93.3846L33.3232 94.6965L39.0079 85.0764L39.7367 82.4527L40.1739 96.154L43.1974 96.0623L44.5836 83.2685L42.3602 71.375L33.469 71.6665Z" fill="#2F2E41"/>
<path d="M37.4809 74.454C34.376 74.454 32.4047 73.8601 32.3606 73.8508L32.2891 73.8355L33.9063 66.3376L33.9791 59.4214C33.9791 56.4906 35.908 54.3298 36.1757 54.1304C36.2208 53.9525 36.3041 53.7866 36.42 53.6442C36.5358 53.5019 36.6813 53.3865 36.8463 53.3062C37.4897 53.0143 38.276 53.3646 38.3091 53.3797L40.6691 54.2645L40.6802 54.2972C40.7086 54.3811 43.817 64.5855 43.817 64.5855C43.817 64.5855 43.6288 73.5015 43.5633 73.7936C43.5633 73.7936 39.206 74.454 37.4809 74.454Z" fill="#3F3D56"/>
<path d="M39.8664 52.0883C41.628 52.0883 43.056 50.6602 43.056 48.8986C43.056 47.137 41.628 45.709 39.8664 45.709C38.1048 45.709 36.6768 47.137 36.6768 48.8986C36.6768 50.6602 38.1048 52.0883 39.8664 52.0883Z" fill="#9F616A"/>
<path opacity="0.2" d="M36.3105 59.9873L41.8908 67.7731L42.7148 64.1372L36.3105 59.9873Z" fill="black"/>
<path d="M53.8055 65.2853C53.6486 65.4094 53.4663 65.4976 53.2716 65.5437C53.0769 65.5898 52.8744 65.5927 52.6785 65.552C52.4825 65.5114 52.2979 65.4283 52.1375 65.3086C51.9772 65.1889 51.845 65.0355 51.7504 64.8592L46.9473 65.628L47.9878 63.3244L52.3894 62.9475C52.6961 62.8081 53.0433 62.7861 53.3652 62.8856C53.6871 62.9851 53.9613 63.1992 54.1358 63.4874C54.3104 63.7755 54.3732 64.1177 54.3123 64.4491C54.2514 64.7804 54.0711 65.078 53.8055 65.2853Z" fill="#9F616A"/>
<path d="M48.2354 63.1927L49.9612 63.0234L50.4394 65.4309L48.2678 65.4693L48.2354 63.1927Z" fill="#F1F1F1"/>
<path d="M49.6504 66.2703L41.1981 65.5177L36.9303 58.7303L36.9171 58.6703C36.796 58.1159 36.8808 57.5363 37.1557 57.0398C37.4306 56.5432 37.8769 56.1638 38.4111 55.9722C38.9453 55.7806 39.531 55.7899 40.0588 55.9985C40.5866 56.2071 41.0204 56.6007 41.2793 57.1057L43.7847 61.9926L48.8409 62.7569L49.6504 66.2703Z" fill="#3F3D56"/>
<path d="M37.15 51.6679L39.7974 51.7629C39.9588 51.7687 40.3967 50.0271 40.4541 49.6658C40.4994 49.4306 40.6288 49.22 40.818 49.0732C41.0073 48.9264 41.2436 48.8535 41.4827 48.8682C41.6808 48.8869 42.1806 48.5166 42.6962 48.0782C43.6752 47.2459 43.6243 45.6827 42.5489 44.9794C42.5195 44.9602 42.4906 44.9426 42.4623 44.9267C41.7839 44.547 40.9902 44.4195 40.2128 44.4098C39.508 44.401 38.7833 44.4897 38.1624 44.8232C37.0493 45.4213 36.457 46.7281 36.4049 47.9906C36.3529 49.2531 36.7576 50.4876 37.2169 51.6648" fill="#2F2E41"/>
<path d="M103.515 99.9999H0.429646C0.392879 99.9999 0.357618 99.9853 0.331619 99.9593C0.305621 99.9333 0.291016 99.8981 0.291016 99.8613C0.291016 99.8245 0.305621 99.7893 0.331619 99.7633C0.357618 99.7373 0.392879 99.7227 0.429646 99.7227H103.571C103.607 99.7227 103.643 99.7373 103.669 99.7633C103.695 99.7893 103.709 99.8245 103.709 99.8613C103.709 99.9378 103.592 99.9999 103.515 99.9999Z" fill="#CBCBCB"/>
</g>
<defs>
<clipPath id="clip0_364_1985">
<rect width="103.418" height="100" fill="white" transform="translate(0.291016)"/>
</clipPath>
</defs>
</svg>
