<svg width="9" height="5" viewBox="0 0 9 5" fill="none" xmlns="http://www.w3.org/2000/svg">
<path d="M8.62705 0.789157C8.57282 0.734482 8.5083 0.691085 8.43722 0.66147C8.36614 0.631855 8.28989 0.616608 8.21288 0.616608C8.13588 0.616608 8.05963 0.631855 7.98855 0.66147C7.91746 0.691085 7.85295 0.734482 7.79872 0.789157L5.12705 3.46082C5.07282 3.5155 5.00831 3.5589 4.93722 3.58851C4.86614 3.61813 4.78989 3.63337 4.71288 3.63337C4.63588 3.63337 4.55963 3.61813 4.48855 3.58851C4.41746 3.5589 4.35295 3.5155 4.29872 3.46082L1.62705 0.789157C1.57282 0.734482 1.50831 0.691085 1.43722 0.66147C1.36614 0.631855 1.28989 0.616608 1.21288 0.616608C1.13588 0.616608 1.05963 0.631855 0.988548 0.66147C0.917464 0.691085 0.852947 0.734482 0.798718 0.789157C0.690072 0.898451 0.629089 1.0463 0.629089 1.20041C0.629089 1.35452 0.690072 1.50236 0.798718 1.61166L3.47622 4.28916C3.80434 4.61688 4.24913 4.80095 4.71288 4.80095C5.17664 4.80095 5.62142 4.61688 5.94955 4.28916L8.62705 1.61166C8.7357 1.50236 8.79668 1.35452 8.79668 1.20041C8.79668 1.0463 8.7357 0.898451 8.62705 0.789157Z" fill="#444444"/>
</svg>
